<svg xmlns="http://www.w3.org/2000/svg" version="1.1" width="600px" height="600px" viewBox="0 0 200 200" style="overflow:hidden!important;"><g id="svga-group-wrapper"><g id="svga-group-backs-single"><path id="SvgjsPath13709" d="M0 0h200v200H0V0z" fill="#ecf0f1" stroke-width="none" opacity="1"></path><path id="SvgjsPath13710" d="M100 124.2c-13.3 0-24.2-10.8-24.2-24.2S86.7 75.8 100 75.8s24.2 10.8 24.2 24.2-10.9 24.2-24.2 24.2zm0-42.4c-10 0-18.2 8.2-18.2 18.2s8.2 18.2 18.2 18.2 18.2-8.2 18.2-18.2S110 81.8 100 81.8zm0 57.4c-21.6 0-39.2-17.6-39.2-39.2S78.4 60.8 100 60.8s39.2 17.6 39.2 39.2-17.6 39.2-39.2 39.2zm0-72.4c-18.3 0-33.2 14.9-33.2 33.2s14.9 33.2 33.2 33.2 33.2-14.9 33.2-33.2-14.9-33.2-33.2-33.2zm0 87.5c-29.9 0-54.3-24.4-54.3-54.3S70.1 45.7 100 45.7 154.3 70 154.3 100s-24.4 54.3-54.3 54.3zm0-102.6c-26.6 0-48.3 21.7-48.3 48.3 0 26.6 21.7 48.3 48.3 48.3 26.6 0 48.3-21.7 48.3-48.3 0-26.6-21.7-48.3-48.3-48.3zm0 116.4c-37.6 0-68.1-30.6-68.1-68.1S62.4 31.9 100 31.9s68.1 30.6 68.1 68.1-30.5 68.1-68.1 68.1zm0-130.2c-34.2 0-62.1 27.9-62.1 62.1s27.9 62.1 62.1 62.1 62.1-27.9 62.1-62.1-27.9-62.1-62.1-62.1zm0 146.2c-46.4 0-84.1-37.7-84.1-84.1S53.6 15.9 100 15.9s84.1 37.7 84.1 84.1-37.7 84.1-84.1 84.1zm0-162.2c-43.1 0-78.1 35-78.1 78.1s35 78.1 78.1 78.1 78.1-35.1 78.1-78.1-35-78.1-78.1-78.1zm0 90c-6.6 0-11.9-5.4-11.9-11.9 0-6.6 5.4-11.9 11.9-11.9 6.6 0 11.9 5.4 11.9 11.9 0 6.6-5.3 11.9-11.9 11.9zm0-17.8c-3.3 0-5.9 2.7-5.9 5.9 0 3.3 2.7 5.9 5.9 5.9 3.3 0 5.9-2.7 5.9-5.9 0-3.3-2.6-5.9-5.9-5.9zM0 146.7v12.8c9.9 16.6 23.9 30.6 40.5 40.5h12.8C29.9 189 11 170.1 0 146.7zm200 0c-11 23.4-29.9 42.3-53.3 53.3h12.8c16.6-9.9 30.6-23.9 40.5-40.5v-12.8zm0-93.4V40.5C190.1 23.9 176.1 9.9 159.5 0h-12.8C170.1 11 189 29.9 200 53.3zm-200 0C11 29.9 29.9 11 53.3 0H40.5C23.9 9.9 9.9 23.9 0 40.5v12.8zm200 36.3C195.1 42.5 157.6 4.9 110.4 0H89.6C42.5 4.9 4.9 42.5 0 89.6v20.8c4.9 47.1 42.5 84.7 89.6 89.6h20.8c47.1-4.9 84.7-42.4 89.6-89.6V89.6zM100 194.5c-52.1 0-94.5-42.4-94.5-94.5S47.9 5.5 100 5.5s94.5 42.4 94.5 94.5-42.4 94.5-94.5 94.5zM0 176.2v9.5c4.4 5.1 9.1 9.9 14.3 14.3h9.5c-9-6.8-17-14.8-23.8-23.8zm200 0c-6.8 8.9-14.8 16.9-23.8 23.8h9.5c5.1-4.4 9.9-9.1 14.3-14.3v-9.5zM0 23.8c6.8-9 14.8-17 23.8-23.8h-9.5C9.1 4.4 4.4 9.1 0 14.3v9.5zm200 0v-9.5c-4.4-5.1-9.1-9.9-14.3-14.3h-9.5c9 6.8 17 14.8 23.8 23.8z" fill="#c6dce2" stroke-width="none" opacity="1"></path></g><g id="svga-group-humanwrap-move" transform="matrix(1,0,0,1,0,-6)"><g id="svga-group-humanwrap"><g id="svga-group-hair-back-move" transform="matrix(1,2.856368900253737e-18,-2.856368900253737e-18,1,0,0)"><g id="svga-group-hair-back"></g></g><g id="svga-group-humanbody-back"><path id="SvgjsPath13302" d="M180.8 184.9c-2.3-3.4-38.9-17.8-38.9-17.8l-13.4-5.2-5.6-68.8H76.8L71.3 162l-13.4 5.2S21.4 181.6 19 185c-2.3 3.4-3.3 14.9-3.3 14.9V219h168.5v-19.2c-.1.1-1-11.5-3.4-14.9z" fill="#e8caba" stroke-width="none" opacity="1"></path></g><g id="svga-group-chinshadow-single"><path id="SvgjsPath13298" d="M94.3 163.2s17.4.7 30.2-15c.96-1.2 1.83-2.36 2.64-3.5l-4.2-51.6H76.82l-4.96 62.4c11.08 8.16 22.44 7.7 22.44 7.7z" fill="#c99579" stroke-width="none" opacity="1"></path></g><g id="svga-group-humanbody-front"><path id="SvgjsPath13303" d="M184.5 219c-.1-6.4-.1-12.8-.1-19.2l-.3-.1s.1-.1.2 0c.1 0 .1.1.1.1v-.4l-.1-.5-.1-.9-.2-1.9c-.2-1.3-.4-2.5-.6-3.8-.2-1.3-.5-2.5-.9-3.8-.4-1.2-.8-2.5-1.5-3.6-.8-.9-1.9-1.5-2.9-2.1-1-.6-2.1-1.1-3.2-1.7-2.1-1.1-4.3-2.1-6.5-3.1-4.4-2-8.7-3.9-13.1-5.7-4.4-1.9-8.8-3.7-13.2-5.5l-13-5.2-1.2-16.9c-.4-5.7-.9-11.5-1.3-17.2l-1.3-17.2-1.5-17.3-.1-.8h-.8c-7.7 0-15.4.1-23.1.1l-23.1.2h-.5v.5L75 110.2l-1.3 17.2c-.8 11.4-1.8 22.8-2.8 34.2-5.6 2.1-11.2 4.2-16.7 6.4-5.6 2.2-11.2 4.5-16.8 6.9-2.8 1.2-5.6 2.4-8.3 3.6-2.8 1.3-5.5 2.5-8.2 4.1-.7.4-1.3.8-2 1.4-.2.1-.4.4-.5.6l-.3.6c-.2.4-.4.7-.5 1.1-.6 1.5-1 3-1.3 4.5-.6 3-1.1 6-1.4 9.1l-.1 19.1v.9h.9l42.1.1H100c14 0 28.1-.1 42.1-.2l42.1-.5h.3v-.3zm-84.5-1-42.1-.1-41.2.1-.1-18.1c.3-3 .6-5.9 1.2-8.9.3-1.4.6-2.9 1.1-4.2.1-.3.3-.7.4-.9l.2-.4.3-.3c.5-.4 1.1-.8 1.8-1.2 2.5-1.5 5.3-2.8 8-4.1 2.7-1.3 5.5-2.5 8.2-3.7 5.5-2.4 11.1-4.8 16.7-7.1s11.2-4.5 16.9-6.7l.2-.1v-.2c.9-11.5 1.7-23 2.7-34.4l1.4-17.2 1.5-16.7 22.6.2c7.4.1 14.8.1 22.3.1l1.3 16.4 1.5 17.2c.5 5.7 1 11.5 1.5 17.2l1.6 17.2v.3l.3.1 13.4 5c4.4 1.7 8.9 3.4 13.3 5.2 4.4 1.8 8.8 3.7 13.2 5.6 2.2 1 4.3 2 6.5 3 1.1.5 2.1 1.1 3.2 1.6 1 .6 2.1 1.2 2.9 2 .7 1.1 1.1 2.3 1.4 3.5.3 1.2.6 2.5.8 3.7.2 1.3.4 2.5.6 3.8l.2 1.9.1.9.1.5v.4c0 6.3 0 12.6-.1 18.9l-41.8-.5c-14 .1-28.1 0-42.1 0z" fill="#ba7e5d" stroke-width="none" opacity="1"></path><path id="SvgjsPath13304" d="M125.1 142.4s-1.8 23-9.1 32.9c0 0 7.9-25 9.1-32.9zm-34.5 16s5 7.9 11.5 10.1c0 0-9.5 2.2-11.5-10.1zM73.4 140c6.7 25.6 6.7 25.6 8.5 30.7 0 0 .4-12.6-8.5-30.7z" fill="#c99579" stroke-width="none" opacity="1"></path></g><g id="svga-group-clothes-single"><path id="SvgjsPath13184" d="M10.9 220c0-15.2 1.2-32.2 2.3-34.1 1-1.9 5-3.3 5-3.3s3.5-2.9 7.1-4.8c3.5-1.9 15.7-3.9 15.7-3.9s0-1 .4-1.9 1.9-1.2 5-5.2 2.1-4.8 2.7-6.7c.6-1.9 4.4-1.5 4.4-1.5s.4-6 4.8-10c4.4-3.9 13.6-6.6 13.6-6.6s-.1 6.9-.1 11.3-1.3 4.6 5.1 12.6c6.5 7.9 12.4 15.1 15.4 17 3.1 1.9 7.2 4 9.1 9.5 0 0 1.7-4.4 3.7-5.9s6.2-6 7.9-7.7c1.7-1.7 5.3-8.1 7.5-9.5 2.2-1.5 7.4-6.5 8.3-7.9s-.9-21.7-.9-21.7 6.9 3.7 9.4 5.4c2.5 1.7 4.9 9.5 4.9 9.5s2.4 2.1 5.1 4.1 4.7 2.9 6.2 5.7c1.5 2.8.8 5.3 1.4 6.5.6 1.1 1.2 2 1.6 2.6 0 0 17.1 5.1 20 6.4s5.7 4 5.7 4 3.1 1.9 3.9 9.8 1.8 26.4 1.8 26.4l-177-.1z" fill="#386e77" stroke-width="none" opacity="1"></path><path id="SvgjsPath13185" d="m188.6 219.9-1.2-18.6c-.2-3.1-.4-6.2-.9-9.3-.2-1.6-.6-3.2-1.2-4.7-.3-.8-.7-1.5-1.1-2.2-.2-.4-.5-.7-.8-1-.3-.3-.5-.6-.9-.9-1.5-1.4-3.1-2.6-4.9-3.6-.9-.5-1.9-.9-2.8-1.2l-2.8-1.1-15.3-4.3c-.5-.8-1.1-1.6-1.4-2.4-.1-.3-.2-.8-.2-1.3s-.1-1-.1-1.6c-.2-2.2-1.2-4.3-2.7-5.9-1.6-1.6-3.4-2.6-5.1-3.8-1.6-1.1-3.2-2.4-4.7-3.7-.6-1.7-1.2-3.3-1.9-4.9-.4-.8-.8-1.6-1.3-2.4-.5-.8-1-1.6-1.9-2.2-1.5-1-3.1-1.9-4.7-2.8-1.6-.9-3.2-1.7-4.8-2.6l-.7-.4s.7 11.7 1 17.3c0 1.4.4 3 .3 4.3 0 .2 0 .3-.1.5 0 .1 0 .1-.1.2l-.1.2c-.2.3-.4.5-.6.8-.4.5-.9 1-1.4 1.5-2 2-4 3.9-6.2 5.6-1.1.9-2 2.1-2.8 3.2-.8 1.1-1.6 2.3-2.4 3.4-.4.6-.8 1.1-1.2 1.7-.4.6-.8 1.1-1.4 1.5-1.1.8-3.5 4.2-6.3 6.5-.6.4-1.2.7-1.8 1.3-.5.5-.9 1.1-1.3 1.7-.6.9-1.1 1.8-1.5 2.8-.9-2.2-2.5-4.3-4.4-5.8-1.1-.9-2.2-1.6-3.4-2.4-1.2-.7-2.1-1.7-3.2-2.5-4.4-4-4.4-6-8.3-9.7-1.9-1.9-3.6-4.1-5.2-6.2-.8-1.1-1.7-2.1-2.4-3.2-.8-1.1-1.4-2.2-1.8-3.4-.4-1.1-.2-2.4-.1-3.8l.1-4.1.1-8.1v-1.2l-1.2.3c-2.2.6-4.3 1.4-6.3 2.3-2.1.9-4.1 1.9-6 3.2-1.9 1.3-3.6 3.1-4.6 5.2-1 1.8-1.6 3.8-1.9 5.8-.7 0-1.4.1-2.2.2-.5.1-1 .3-1.5.7-.2.2-.5.5-.6.8-.2.3-.2.6-.3.8-.1.5-.2 1-.2 1.4 0 .4-.1.8-.2 1.1-.2.7-.7 1.5-1.1 2.2-1 1.4-2.1 2.8-3.3 4-.6.6-1.2 1.1-2 1.8-.2.2-.4.4-.6.7-.2.3-.2.5-.3.8-.1.3-.2.6-.2 1-1.5.4-7.5.9-9 1.4-1.6.6-3.2 1.1-4.8 1.8-1.6.7-3.1 1.6-4.5 2.6-1.4.9-2.7 1.9-4 3-1.6.7-3.1 1.4-4.4 2.6-.3.3-.6.7-.9 1.2-.2.5-.2.9-.3 1.3-.2.9-.3 1.7-.4 2.5-.4 3.4-.6 6.7-.8 10.1-.2 3.4-.3 6.7-.3 10.1 0 1.7-.1 3.4-.1 5 0 1.7 0 3.3.1 5.1l43.9.4 44.2.3c14.7.1 29.5.1 44.3.2 14.8 0 29.6.1 44.4 0h1.1l-.1-1.1zm-85-30.9c.4-.6.8-1.1 1.2-1.6.4-.5 1-.8 1.6-1.2 2.4-1.4 3.4-4.9 12.8-9.5 3.2-1.6 6-3.6 8.7-5.7 1.4-1.1 2.7-2.2 4-3.3.6-.6 1.3-1.2 1.8-2s.9-1.6 1.3-2.4c.7-1.7 1.1-3.4 1.2-5.2 0-.4 0-.9-.1-1.4-.1-.4-.2-.9-.4-1.3-.3-.8-.7-1.6-1.2-2.3.3.8.5 1.6.7 2.5.1.8.2 1.6 0 2.4-.3 1.6-.9 3.2-1.7 4.6-.4.7-.8 1.4-1.3 2-.5.6-1.1 1.1-1.7 1.7-1.3 1.1-2.6 2.1-3.9 3.2-1.3 1.1-2.7 2.1-4.1 3.1l-2.1 1.5c-.7.5-1.4.9-2.1 1.4-1.5.9-2.9 1.9-4.4 2.9.1-.1.1-.2.2-.2.4-.6.8-1.1 1.2-1.7.8-1.1 1.6-2.3 2.4-3.4.8-1.1 1.7-2.3 2.7-3.1 2.3-1.6 4.3-3.6 6.3-5.6l1.5-1.5c.2-.3.5-.5.7-.8 0 0 2-2.5 2.4-3.6.5-1.3.8-2.7.7-4.2-.2-1.4-.9-5.1-1.6-6.4-.5-1.1-2-4.9-2.2-7.2 1.4.8 2.7 1.5 4.1 2.3 1.6.9 3.1 1.8 4.6 2.8.6.4 1.1 1.2 1.6 1.9.4.8.8 1.5 1.2 2.4.7 1.6 1.3 3.3 1.9 5l.1.1.1.1c.1 0 .1.1.1.1v.1c0 1.1-.1 2.3-.3 3.4-.3 2.2-1 4.4-1.8 6.5-1.5 4.2-3.9 8.1-7.5 10.4-.9.6-1.8 1.1-2.9 1.7l-3 1.8-5.8 3.6c-1 .6-1.9 1.1-2.9 1.6-.5.2-1 .5-1.5.6-.5.2-1.1.3-1.6.4-2.2.6-4.4 1.2-6.6 1.9 2.3-.3 4.6-.6 6.8-.9.6-.1 1.1-.1 1.7-.3.6-.1 1.2-.3 1.7-.6 1.1-.4 2.1-1 3.2-1.5 2.1-1.1 4-2.3 6-3.4 1-.6 2-1.1 3-1.7 1-.5 2.1-1.1 3-1.8 2-1.4 3.7-3.1 5-5.1 1.3-2 2.2-4.2 2.9-6.5.7-2.2 1.1-4.5 1.2-6.9 0-1 0-2.1-.1-3.1 1.3 1.2 2.7 2.3 4.1 3.3 1.7 1.2 3.5 2.2 4.8 3.6 1.3 1.4 2.1 3.2 2.3 5.2.1.5.1 1 .1 1.5s0 1 .3 1.7c-.8.9-1.6 1.9-2.3 2.8-.9 1.2-1.9 2.3-2.8 3.4-1.9 2.1-4.2 4.2-6.1 6.6 1.5-.6 2.8-1.4 4.1-2.2 1.3-.9 2.5-1.9 3.5-3 1.1-1.2 1.9-2.5 2.6-3.9.5-1 1-2 1.3-3.1.4.8.9 1.6 1.4 2.2l.1.2h.1c-1.5 2.2-3 4.4-4.7 6.6-1.8 2.3-3.7 4.6-5.9 6.4-2.3 1.8-4.8 3.2-7.5 4.3-2.7 1.1-5.4 2.1-8.2 2.9-2.8.8-5.7 1.3-8.6 1.8-2.9.5-5.7 1.2-8.6 1.6-3.4.6-4.8.5-5.1.5 0-1.1-.1-2.1-.3-2.8.6-.3 1.4-.9.1-1.4-1.6-.5-3.1.2-3.1.9-.1.6.5.7 1.1.7.2.6.2 1.3.2 2.1-.3-.1-.6-.3-.8-.5-.5-.4-.9-.8-1.3-1.3-.3-.5-.7-1.1-.8-1.6l-.6-2.1c.6-.9 1.1-2 1.8-3zm-61.9-14.6v-.6c0-.3.1-.8.2-1.1 0-.2.1-.4.2-.4 0-.1.1-.2.3-.3.6-.5 1.4-1.1 2-1.8 1.3-1.3 2.5-2.7 3.5-4.2.5-.8 1-1.6 1.3-2.6.3-1 .3-2 .5-2.7 0-1.1 1.6-1.3 3.1-1.3 0 .6.1 1.1.1 1.7.4 3.3 1.5 6.6 3.1 9.6 1.7 2.9 3.9 5.6 6.5 7.6 2.6 2.1 5.6 3.7 8.7 4.7-2.8-1.8-5.4-3.7-7.7-5.9s-4.3-4.7-5.8-7.4c-.8-1.4-1.4-2.8-2-4.3-.6-1.5-1-3-1.3-4.5-.1-.5-.2-1.1-.3-1.6l.1-.6c.2-2 .9-4.1 1.9-5.9 1-1.9 2.4-3.4 4.1-4.6 1.7-1.2 3.7-2.1 5.7-3 1.6-.7 3.3-1.3 5-1.9 0 0-1.7 4.2-2.2 5.1-.7 1.1-1 2.6-.7 3.9.1.7.3 1.3.6 1.8.2.6.5 1.1.8 1.6.4.7 3 5.6 3.8 6.8.8 1.1 1.7 2.2 2.5 3.3 1.7 2.1 3.6 4.9 5.6 6.8 4.1 4 3.8 6.3 8.3 9.4 1.1.8 2.3 1.5 3.5 2.2 1.2.7 2.3 1.4 3.3 2.2 2.1 1.6 3.7 3.8 4.6 6.3l.1.3-.4 1.1c-.2.6-.5 1.3-.9 1.8-.4.6-.8 1-1.2 1.1-.1 0-.2.1-.4.1h-1.3c0-.1.1-.2.1-.3.3-.6.6-1.2.8-1.5.4.1.9 0 1-.3.2-.5-.6-2.1-1.6-2-.9 0-1.3.3-.5 1.4-.6.6-1.3 1.5-1.8 2.8h-.6c-3.1-.1-6.1-.4-9.2-.7-3.1-.4-6.1-.7-9-1.5-2.9-.8-15.6-7.5-21.2-10-2.8-1.2-5.7-2.4-8.3-4.1-1.3-.9-2.5-1.8-3.5-3-.8-.9-1.6-2.1-1.9-3.3l.5-.2zm102 44.6c-14.7 0-29.3.1-44 .2l-44.2.3-44.5.4c.1-1.6.1-3.3.2-5l.2-5c.1-3.4.3-6.7.6-10.1.2-3.3.6-6.7 1-10 .1-.8.2-1.6.4-2.4.1-.4.2-.8.3-1.1.1-.3.4-.6.6-.8 1.1-1 2.7-1.8 4.2-2.4h.1l.1-.1c1.3-1 2.7-2 4.1-2.9 1.4-.9 2.8-1.8 4.3-2.4 3-1.3 10.9-2.2 14.1-3.1.3 1.3 1 2.4 1.8 3.5 1 1.2 2.2 2.3 3.4 3.2 2.5 1.9 5.4 3.2 8.2 4.5 5.6 2.7 18.2 9.9 21.2 10.8 1.5.4 3.1.8 4.6 1s3.1.5 4.6.7c3.1.4 6.2.6 9.3.8h.2v.1c-.3 2.9 1.6 8.7 2 12.1s-1 6.8-.3 7 2.5.9 2.8-.2c.3-1.1.6-10.9-.9-13.9-.9-1.8-1.3-3.6-1.3-5.1H98.5c.2 0 .5-.1.8-.1 1.1-.3 1.8-1.2 2.3-1.9.1-.1.1-.2.2-.3 0 .1.1.1.1.2.5.7 1.1 1.3 1.8 1.8.6.4 1.2.7 1.8.9-.1.5-.1.9-.2 1.3-.4 1.9-2 3.1-1.2 7.2s3.1 6.1 3.4 7.7c.3 1.6.4 2.9 1 2.9s2.4-.7 2.7-1.6-.8-3.5-2.3-5.4c-1.5-1.9-2.8-4.6-2.8-6.1 0-1.3.9-3.7 1.3-5.7 6.7-.6 11.3-1.8 14.2-2.3s5.8-1.2 8.6-2c2.9-.9 5.6-1.9 8.3-3.2 2.7-1.3 5.3-2.8 7.6-4.8 2.2-2 4.1-4.4 5.8-6.8 1.6-2.2 3-4.5 4.3-6.9h.1l15.4 4.5 2.7 1.1c.9.4 1.8.8 2.6 1.2 1.6.9 3.2 2.1 4.6 3.4l.1.1.6.6.6.9c.4.6.7 1.3.9 1.9.5 1.4.9 2.8 1.1 4.3.4 3 .6 6.1.8 9.2.4 5.8.7 11.7 1.1 17.5-14.5.2-28.8.2-43.1.3zM32.8 203.3c-.3-1.8-1-3.3-1.7-4.7-1.5-2.9-3.2-5.6-5.1-8.2-1-1.3-1.9-2.6-3.1-3.7-1.2-1.1-2.5-2.1-4.1-2.6 1.4.8 2.5 2 3.4 3.2.9 1.2 1.7 2.6 2.6 3.9 1.6 2.7 3.2 5.4 4.6 8.2.7 1.4 1.4 2.8 1.6 4.1.3 1.5.4 3.1.6 4.6.3 3.1.6 6.3 1.1 9.5.4-3.2.5-6.4.4-9.6 0-1.4-.1-3-.3-4.7zm142.4-17.5c-.9.2-1.8.7-2.4 1.4-.6.7-1.1 1.5-1.5 2.2-1.8 2.8-3.6 5.7-5.2 8.7-.4.8-.7 1.6-1.1 2.4-.2.4-.3.8-.4 1.3-.1.4-.2.9-.3 1.3-.2 1.7-.4 3.4-.4 5.1-.1 3.4-.1 6.8.1 10.1.6-3.3 1-6.7 1.5-10 .2-1.6.4-3.3.7-4.9.3-1.5 1-3 1.7-4.4 1.5-3 3.2-5.8 4.7-8.9.4-.8.7-1.5 1.1-2.1.4-.6 1-1 1.7-1.3.7-.3 1.6-.4 2.4-.8.8-.3 1.6-.8 2.2-1.3-.8.4-1.6.6-2.4.8-.7.2-1.5.2-2.4.4z" fill="#184f58" stroke-width="none" opacity="1"></path><path id="SvgjsPath13186" d="M173.1 180.5c-3.5-1.5-13.8-3-16.4-4.8 0 0 11.8 6.1 15.9 7.4 4.1 1.3 7.2.9 7.2.9s-3.2-2-6.7-3.5zm-32.6-24.6c0-3.2-2.4-7.4-4.1-9.5s-5.4-3.2-6.9-4.3c0 0 .9.9 2.6 2.8 1.7 1.9 5 6.7 5.6 10.6.6 3.9-2.6 11.3-4.8 14.1s-10.8 7.2-14.8 9.5c-3.9 2.4-7.5 5.6-12.1 8.2s-3 6.9-3 6.9.7-2.6 2.2-4.6 7.3-6.1 11.6-7.4c4.3-1.3 14.3-7.4 18.2-11.1 3.9-3.4 5.5-11.9 5.5-15.2zm3.2 2.2s1.9 3 3.2 4.8c1.3 1.7 2.4 5.9-1.5 12.4s-15 13.2-15 13.2 9.5-4.3 12.6-6.5c3-2.2 8.9-9.5 9.3-11.3.4-1.7-.2-4.8-1.5-6.9-1.2-2.2-6.2-4.8-7.1-5.7zm-59.3 22.6c-3.9-3-11.4-13.2-14.4-17.1-3-3.9-3.2-8-3.5-10.8 0 0-2.4 2.6-2.8 4.8s-.4 5.9 3.2 8.9c3.7 3 17.5 18 22.7 20.4 5.2 2.4 9.3 5.9 9.3 5.9s-1.1-2.6-2.4-3.9c-1.3-1.5-8.2-5.2-12.1-8.2zM60 185.4c3.9 1.5 14.5 6.3 17.3 7.4s15.1 3 15.1 3-11.8-3.9-15.8-5.6c-3.8-1.7-16.6-4.8-16.6-4.8z" fill="#4d7e86" stroke-width="none" opacity="1"></path></g><g id="svga-group-head" transform="matrix(1,2.856368900253737e-18,-2.856368900253737e-18,1,0,0)"><g id="svga-group-ears-left-move" transform="matrix(1,0,0,1,0,0)"><g id="svga-group-ears-left"><path id="SvgjsPath13199" d="M68.53 80.36s-11.15-9.8-12.94-9.96c-1.54-.14-5.36 8.01-7.05 13.16-.45 1.36-.34 2.88.25 4.2 1.62 3.57 5.21 11.04 8.43 14.78 0 0 2.72.59 3.58.33.86-.25 7.58-5.67 8.27-7.77s.83-11.3-.54-14.74z" fill="#e8caba" stroke-width="none" opacity="1"></path><path id="SvgjsPath13200" d="M69.49 84.19c.18 1.31.28 2.64.33 3.96.05 1.32.06 2.65-.01 3.98a26.7 26.7 0 0 1-.17 1.99c-.05.34-.1.67-.2 1.02s-.28.7-.46.96c-.72 1.11-1.6 1.95-2.47 2.8-.88.84-1.78 1.63-2.71 2.4-.47.38-.93.75-1.42 1.11-.24.18-.49.35-.74.52l-.4.24c-.16.08-.35.17-.53.19-.67.08-1.23-.01-1.82-.09-.58-.08-1.15-.19-1.73-.32l-.13-.03-.08-.1c-1.45-1.74-2.63-3.68-3.74-5.65-1.1-1.98-2.1-4.03-3.06-6.1l-1.41-3.11c-.5-1.05-.71-2.29-.54-3.46.06-.59.26-1.14.44-1.67.18-.54.37-1.07.56-1.6.4-1.05.79-2.11 1.22-3.15.86-2.07 1.76-4.13 2.94-6.02.3-.47.62-.93 1-1.36.19-.21.4-.42.67-.59.13-.08.3-.16.52-.16.19.01.32.07.47.12 1.06.47 1.87 1.14 2.75 1.76 1.72 1.29 3.37 2.66 5 4.09 1.64 1.41 3.22 2.86 4.81 4.38.49 1.27.72 2.58.91 3.89zM58.4 72.51c-.85-.59-1.75-1.26-2.59-1.61-.09-.02-.2-.08-.26-.08-.04 0-.12.02-.2.07-.17.1-.35.25-.51.44-.34.36-.65.8-.94 1.24-1.16 1.8-2.18 3.77-3.11 5.77-.46 1.01-.92 2.02-1.32 3.06-.2.52-.4 1.04-.59 1.57-.19.53-.38 1.05-.45 1.6-.15 1.11.06 2.27.55 3.26.47 1.03.98 2.05 1.49 3.05 1.02 2.02 2.12 3.99 3.26 5.91 1.15 1.91 2.36 3.79 3.76 5.42l-.21-.13c1.09.2 2.3.43 3.29.33.11-.01.18-.06.28-.11l.35-.22.7-.5c.47-.34.93-.71 1.39-1.08.92-.74 1.81-1.52 2.68-2.34.85-.82 1.73-1.66 2.39-2.61.17-.25.29-.46.38-.72.08-.27.14-.58.19-.89.09-.63.17-1.27.21-1.91.1-1.29.14-2.6.15-3.9.01-1.31-.04-2.62-.15-3.92-.11-1.3-.27-2.62-.66-3.84-3.33-2.62-6.67-5.35-10.08-7.86z" fill="#d9af98" stroke-width="none" opacity="1"></path><path id="SvgjsPath13201" d="M68.79 88.66S58.04 75.08 56.02 76.21c-2.01 1.12-5.19 7.53-5.18 9.67.02 3.14 3.34 8.38 5.01 9.96s3.68 2.55 6.35 1.94c2.66-.61 6.59-9.12 6.59-9.12z" fill="#d9af98" stroke-width="none" opacity="1"></path><path id="SvgjsPath13202" d="M60.61 88.64c-.45-1.26-.95-2.5-1.45-3.74a49.61 49.61 0 0 0-1.66-3.64c-.61-1.18-1.22-2.36-1.97-3.45l-.08-.12-.08.12c-.75 1.18-1.45 2.38-2.12 3.62-.33.62-.66 1.25-.96 1.89-.31.64-.57 1.31-.84 1.98l-.04.1.04.12c.46 1.41.96 2.79 1.47 4.18.25.69.54 1.37.83 2.05.3.68.59 1.35.99 2.01l.19.31.25-.23c.34-.31.6-.65.87-1.02.26-.37.49-.76.69-1.17.4-.82.63-1.78.6-2.74v-.06l-.02-.04c-.5-.99-1.03-1.96-1.55-2.94l-.05.03c.42 1.01.83 2.03 1.26 3.03-.04.86-.3 1.68-.68 2.41-.33.62-.77 1.17-1.24 1.65-.26-.49-.5-1.02-.73-1.56l-.81-2.03c-.53-1.32-1.03-2.66-1.52-3.99.45-1.3.94-2.59 1.52-3.82.57-1.23 1.22-2.41 1.96-3.51.67 1.04 1.17 2.23 1.68 3.39l1.54 3.67 1.56 3.67c.52 1.22 1.05 2.45 1.6 3.66l.06-.03c-.41-1.27-.85-2.54-1.31-3.8z" fill="#ba7e5d" stroke-width="none" opacity="1"></path></g></g><g id="svga-group-ears-right-move" transform="matrix(1,0,0,1,0,0)"><g id="svga-group-ears-right"><path id="SvgjsPath13203" d="M131.47 80.36s11.15-9.8 12.94-9.96c1.54-.14 5.36 8.01 7.05 13.16.45 1.36.34 2.88-.25 4.2-1.62 3.57-5.21 11.04-8.43 14.78 0 0-2.72.59-3.58.33-.86-.25-7.58-5.67-8.27-7.77s-.83-11.3.54-14.74z" fill="#e8caba" stroke-width="none" opacity="1"></path><path id="SvgjsPath13204" d="M131.44 80.33c1.58-1.52 3.17-2.97 4.81-4.38 1.62-1.42 3.28-2.8 5-4.09.88-.63 1.69-1.29 2.75-1.76.16-.04.28-.11.47-.12.21 0 .38.08.52.16.28.17.49.37.67.59.38.43.7.89 1 1.36 1.18 1.89 2.07 3.96 2.94 6.02.43 1.04.82 2.09 1.22 3.15.19.53.38 1.06.56 1.6.18.53.37 1.08.44 1.67.17 1.17-.04 2.41-.54 3.46l-1.41 3.11c-.97 2.06-1.96 4.11-3.06 6.1-1.11 1.98-2.29 3.92-3.74 5.65l-.08.1-.13.03c-.58.13-1.15.23-1.73.32-.59.07-1.16.16-1.82.09-.18-.02-.37-.11-.53-.19l-.4-.24c-.25-.17-.5-.34-.74-.52-.48-.36-.95-.73-1.42-1.11-.93-.76-1.83-1.56-2.71-2.4-.87-.86-1.75-1.69-2.47-2.8a3.42 3.42 0 0 1-.46-.96c-.1-.35-.14-.69-.2-1.02-.08-.67-.14-1.33-.17-1.99-.07-1.33-.07-2.65-.01-3.98.06-1.32.15-2.65.33-3.96.17-1.34.4-2.65.91-3.89zm.06.06c-.4 1.21-.56 2.54-.66 3.84-.1 1.3-.15 2.61-.15 3.92.01 1.31.06 2.61.15 3.9.05.65.12 1.29.21 1.91.06.31.11.62.19.89.09.26.2.47.38.72.66.94 1.54 1.79 2.39 2.61.86.81 1.76 1.59 2.68 2.34.46.37.92.73 1.39 1.08l.7.5.35.22c.1.05.17.1.28.11.99.1 2.2-.13 3.29-.33l-.21.13c1.4-1.63 2.61-3.51 3.76-5.42 1.14-1.92 2.24-3.89 3.26-5.91.51-1.01 1.02-2.02 1.49-3.05.49-.99.7-2.15.55-3.26-.07-.56-.26-1.07-.45-1.6s-.38-1.05-.59-1.57c-.4-1.04-.86-2.06-1.32-3.06-.93-2.01-1.95-3.97-3.11-5.77-.29-.44-.6-.88-.94-1.24-.17-.18-.35-.34-.51-.44a.431.431 0 0 0-.2-.07c-.06 0-.17.06-.26.08-.84.35-1.74 1.02-2.59 1.61-3.39 2.49-6.73 5.22-10.08 7.86z" fill="#d9af98" stroke-width="none" opacity="1"></path><path id="SvgjsPath13205" d="M131.21 88.66s10.75-13.58 12.77-12.45c2.01 1.12 5.19 7.53 5.18 9.67-.02 3.14-3.34 8.38-5.01 9.96s-3.68 2.55-6.35 1.94c-2.66-.61-6.59-9.12-6.59-9.12z" fill="#d9af98" stroke-width="none" opacity="1"></path><path id="SvgjsPath13206" d="M148.54 85.31c-.26-.67-.52-1.34-.84-1.98-.3-.64-.62-1.27-.96-1.89-.67-1.24-1.38-2.44-2.12-3.62l-.08-.12-.08.12c-.74 1.1-1.36 2.27-1.97 3.45-.6 1.18-1.14 2.4-1.66 3.64-.49 1.24-1 2.48-1.45 3.74-.46 1.26-.9 2.53-1.28 3.81l.06.03c.55-1.21 1.07-2.44 1.6-3.66l1.56-3.67 1.54-3.67c.51-1.16 1.01-2.35 1.68-3.39.74 1.1 1.39 2.29 1.96 3.51.58 1.24 1.08 2.52 1.52 3.82-.5 1.34-.99 2.67-1.52 3.99l-.81 2.03c-.23.53-.47 1.07-.73 1.56-.47-.48-.91-1.03-1.24-1.65-.39-.73-.64-1.55-.68-2.41.43-1 .84-2.02 1.26-3.03l-.05-.03c-.52.98-1.05 1.95-1.55 2.94l-.02.04v.06c-.03.96.2 1.92.6 2.74.2.41.43.81.69 1.17.26.36.53.71.87 1.02l.25.23.19-.31c.4-.67.69-1.34.99-2.01.29-.68.57-1.36.83-2.05.51-1.38 1.01-2.77 1.47-4.18l.04-.12-.07-.11z" fill="#ba7e5d" stroke-width="none" opacity="1"></path></g></g><g id="svga-group-faceshape-wrap"><g id="svga-group-faceshape-single"><path id="SvgjsPath13281" d="M139.42 105.09c.29-8.36-.32-24.19.98-36.59 0 0 .9-9.5 0-13.6-2.2-10-6.3-16-15.2-20.8-9.3-5-25.2-4.8-25.2-4.8s-15.9-.2-25.2 4.8c-8.8 4.8-13 10.8-15.2 20.8-.9 4 0 13.6 0 13.6 1.3 12.4.52 25.14.91 34.65.49 15.53 4.95 26.5 10.09 33.1 12.7 15.7 29.4 15.35 29.4 15.35s15.46 1.51 28.16-14.19c8.05-9.99 10.85-20.76 11.26-32.32z" fill="#e8caba" stroke-width="none" opacity="1"></path><path id="SvgjsPath13282" d="M87.9 137.9s8.6-8.5 21.2-.5c0 0-12.3-3-21.2.5z" fill="#c99579" stroke-width="none" opacity="1"></path><path id="SvgjsPath13283" d="M128.16 137.41c8.06-9.99 10.86-20.76 11.26-32.32.29-8.36-.32-24.19.98-36.59 0 0 .9-9.5 0-13.6-2.2-10-6.3-16-15.2-20.8-9.3-5-25.2-4.8-25.2-4.8s-15.9-.2-25.2 4.8c-8.8 4.8-13 10.8-15.2 20.8-.9 4 0 13.6 0 13.6 1.3 12.4.52 25.14.91 34.65.49 15.53 4.95 26.5 10.09 33.1 12.7 15.7 29.4 15.35 29.4 15.35s15.46 1.51 28.16-14.19zm-5.62 4.69c-2.14 1.75-4.41 3.3-6.84 4.57-2.44 1.24-5 2.22-7.64 2.86-.66.18-1.32.32-1.99.43-.66.14-1.34.21-2.01.3-1.32.14-2.74.21-3.95.11h-.15c-2.6-.07-5.41-.57-8.03-1.33-2.64-.77-5.22-1.78-7.63-3.11-4.86-2.58-9.15-6.21-12.64-10.46-3.35-4.3-5.73-9.43-7.31-14.76-1.57-5.35-2.42-10.92-2.68-16.53-.33-5.63-.25-11.32-.34-17.02-.08-5.7-.31-11.42-.91-17.11-.33-2.83-.55-5.64-.65-8.47-.05-1.41-.06-2.82.01-4.22.04-.69.09-1.39.22-2.06.12-.68.3-1.37.45-2.06.69-2.73 1.64-5.39 2.96-7.86 1.36-2.45 3.09-4.69 5.19-6.55 2.09-1.86 4.49-3.41 6.99-4.67 2.51-1.23 5.24-2.02 7.99-2.63 5.52-1.15 11.21-1.55 16.83-1.46 5.62.17 11.28.81 16.68 2.19 2.7.69 5.33 1.6 7.71 2.91 2.43 1.34 4.72 2.89 6.7 4.76 4.02 3.71 6.38 8.86 7.71 14.27.73 2.59.72 5.42.74 8.24-.02 2.83-.18 5.62-.4 8.49-.68 11.42 0 22.8-.28 34.17-.21 5.61-1.03 11.23-2.84 16.53-1.8 5.31-4.6 10.23-8.11 14.54-.84 1.11-1.85 2.07-2.77 3.11-.45.53-1 .96-1.49 1.44-.49.45-.98.94-1.52 1.38z" fill="#ba7e5d" stroke-width="none" opacity="1"></path></g></g><g id="svga-group-mouth-single-move" transform="matrix(1,0,0,1,-0.5,0)"><g id="svga-group-mouth-single"><path id="SvgjsPath13380" d="M119.75 120.2c-2.07.95-4.03 1.44-5.29 1.57-4.78.49-8.33.87-12.75 2.53-1.8.7-2.7.9-4.5.4-1.4-.4-2.8-.7-4.2-.9-2.1-.32-4.18.13-6.29.2-1.2.04-2.44-.29-3.84-.62-.7 0-1.25.22.14.97 3.11 1.68 5.12 1.2 8.62 2 2.4.5 6.2 3.44 8.6 2.64 3-1 6.57-3.23 9.57-4.23 3.3-1 4.76-.51 9.4-3.4.65-.45.99-1.37.54-1.16z" fill="#da7c87" stroke-width="none" opacity="1"></path></g></g><g id="svga-group-eyes-left-move" transform="matrix(1,0,0,1,0,0)"><g id="svga-group-eyes-left"><g id="svga-group-eyesback-left"><path id="SvgjsPath13241" d="M80.2 74.2c7.5 0 13.5 5.8 13.5 13s-6 13-13.5 13-13.5-5.8-13.5-13 6-13 13.5-13z" fill="#ffffff" stroke-width="none" opacity="1"></path></g><g id="svga-group-eyesiriswrapper-left" transform="matrix(1,0,0,1,0,0)"><g id="svga-group-eyesiriscontrol-left" transform="matrix(1,0,0,1,0,0)"><g id="svga-group-eyesiris-left"><path id="SvgjsPath13319" d="M80.2 81.9c2.9 0 5.3 2.4 5.3 5.3s-2.4 5.3-5.3 5.3-5.3-2.4-5.3-5.3 2.4-5.3 5.3-5.3z" fill="#4e60a3" stroke-width="none" opacity="1"></path><path id="SvgjsPath13320" d="M84.7 84.3c.4.6.7 1.2.8 1.9s.2 1.4.1 2.2-.4 1.4-.8 2.1c-.4.6-1 1.1-1.6 1.5s-1.3.6-2.1.7c-.7.1-1.4.1-2.2-.1-1.4-.3-2.7-1.1-3.5-2.3-.4-.6-.7-1.3-.9-2-.2-.7-.2-1.5 0-2.2.1-.7.4-1.4.8-2.1.4-.6 1-1.2 1.6-1.6s1.3-.7 2.1-.8c.7-.1 1.5-.1 2.2.1 1.6.5 2.7 1.4 3.5 2.6zm0 0-.3-.4c-.1-.1-.2-.3-.3-.4-.1-.1-.3-.2-.4-.3-.1-.1-.3-.2-.4-.3-.6-.4-1.2-.6-1.9-.7-1.3-.2-2.7.1-3.8.8-1.1.7-1.9 1.8-2.2 3.1-.3 1.3-.1 2.7.6 3.8.3.6.8 1.1 1.4 1.5s1.2.7 1.9.8c.7.1 1.4.1 2-.1.7-.2 1.3-.4 1.8-.8s1-.8 1.4-1.4.7-1.1.9-1.8c.2-.6.2-1.3.2-2-.3-.5-.6-1.2-.9-1.8z" fill="#253984" stroke-width="none" opacity="1"></path><path id="SvgjsPath13321" d="M80.2 85.3c1 0 1.9.9 1.9 1.9s-.9 1.9-1.9 1.9-1.9-.9-1.9-1.9.9-1.9 1.9-1.9z" fill="#000000" stroke-width="none" opacity="1"></path><path id="SvgjsPath13322" d="M80.2 89.3c-1.2 0-2.1-.9-2.1-2.1s.9-2.1 2.1-2.1 2.1.9 2.1 2.1-1 2.1-2.1 2.1zm0-3.8c-.9 0-1.7.8-1.7 1.7 0 .9.8 1.7 1.7 1.7.9 0 1.7-.8 1.7-1.7s-.7-1.7-1.7-1.7z" fill="#253984" stroke-width="none" opacity="1"></path><path id="SvgjsPath13323" d="M77.7 83.2c.4-.2 1.2.3 1.7 1.1.5.9.6 1.8.1 2s-1.2-.3-1.7-1.1c-.4-.8-.5-1.7-.1-2zm3.7 5c.4 0 .6.3.6.6s-.3.6-.6.6-.6-.3-.6-.6.3-.6.6-.6z" fill="#ffffff" stroke-width="none" opacity="1"></path></g></g></g><g id="svga-group-eyesfront-left"><path id="SvgjsPath13249" d="M80.2 73.7c-7.8 0-14.1 6.1-14.1 13.6s6.3 13.6 14.1 13.6 14.1-6.1 14.1-13.6S88 73.7 80.2 73.7zm-4.9 20.2c-4.8-1.7-6.4-6.7-7.2-10.1-.9-3.5 13.8-3.5 17.5-.4 3.8 3 5.3 7.3 5.5 9.6.1-.1-11 2.6-15.8.9z" fill="#e8caba" stroke-width="none" opacity="1"></path><path id="SvgjsPath13250" d="M91.1 92.5c-.1-.5-.1-1-.3-1.4l-.3-.9c-.5-1.9-1.5-4.5-3-6.2-1.2-1.3-4.1-4.4-9-4.4s-8.2 1.6-8.8 1.9c-.2.1-.5.3-.7.5-.4.2-.8.5-1.1 1-.1.2-.1.3-.1.5-.1.1-.1.2-.1.2h.1c0 .1 0 .3.1.4.1.3.2.6.2.9l.6 1.8c.4 1.2.9 2.3 1.6 3.4.7 1.1 1.5 2 2.5 2.8s2.2 1.3 3.4 1.6c2.5.5 5 .3 7.5 0s4.9-.8 7.3-1.5c.2-.2.2-.4.1-.6zm0 .4c-2.4.4-4.9.8-7.3 1.1-1.2.1-2.5.2-3.7.2-1.2 0-2.5 0-3.7-.2-2.4-.4-4.6-1.9-5.8-4-.7-1-1.2-2.2-1.6-3.3-.2-.6-.4-1.2-.5-1.8-.1-.3-.2-.6-.2-.9 0-.2-.1-.3-.1-.4 1.4-.4 6.6-1.9 10.5-1.9 4.5.1 7.9 3.6 9.3 5.1 1.2 1.1 3 5.1 3.1 6.1z" fill="#000000" stroke-width="none" opacity="1"></path></g></g></g><g id="svga-group-eyes-right-move" transform="matrix(1,0,0,1,0,0)"><g id="svga-group-eyes-right"><g id="svga-group-eyesback-right"><path id="SvgjsPath13242" d="M119.8 74.2c7.5 0 13.5 5.8 13.5 13s-6 13-13.5 13-13.5-5.8-13.5-13 6-13 13.5-13z" fill="#ffffff" stroke-width="none" opacity="1"></path></g><g id="svga-group-eyesiriswrapper-right" transform="matrix(1,0,0,1,0,0)"><g id="svga-group-eyesiriscontrol-right" transform="matrix(1,0,0,1,0,0)"><g id="svga-group-eyesiris-right"><path id="SvgjsPath13324" d="M119.8 82.5c2.6 0 4.7 2.1 4.7 4.7s-2.1 4.7-4.7 4.7-4.7-2.1-4.7-4.7 2.1-4.7 4.7-4.7z" fill="#4e60a3" stroke-width="none" opacity="1"></path><path id="SvgjsPath13325" d="M123.8 84.7c.3.5.6 1.1.7 1.7s.2 1.2.1 1.9c-.1.6-.3 1.2-.7 1.8s-.8 1-1.4 1.3-1.2.5-1.8.6-1.3.1-1.9-.1c-1.2-.3-2.3-1-3.1-2-.4-.5-.6-1.1-.8-1.7s-.1-1.3 0-1.9.4-1.2.7-1.8.8-1 1.4-1.4c.6-.3 1.2-.6 1.8-.7.6-.1 1.3-.1 1.9.1 1.4.3 2.4 1.1 3.1 2.2zm-.1 0-.3-.4-.3-.3-.3-.3c-.1-.1-.2-.2-.4-.3-.5-.3-1.1-.5-1.7-.6-1.2-.2-2.3.1-3.3.7-.9.6-1.7 1.6-1.9 2.7-.3 1.1-.1 2.3.5 3.4.3.5.7 1 1.2 1.3s1.1.6 1.6.7c.6.1 1.2.1 1.8-.1.6-.1 1.1-.4 1.6-.7s.9-.7 1.2-1.2.6-1 .8-1.6c.2-.6.2-1.2.1-1.8-.1-.4-.3-1-.6-1.5z" fill="#253984" stroke-width="none" opacity="1"></path><path id="SvgjsPath13326" d="M119.8 85.5c.9 0 1.7.8 1.7 1.7s-.8 1.7-1.7 1.7-1.7-.8-1.7-1.7.8-1.7 1.7-1.7z" fill="#000000" stroke-width="none" opacity="1"></path><path id="SvgjsPath13327" d="M119.8 89.1c-1 0-1.8-.8-1.8-1.8s.8-1.8 1.8-1.8 1.8.8 1.8 1.8-.8 1.8-1.8 1.8zm0-3.4c-.8 0-1.5.7-1.5 1.5s.7 1.5 1.5 1.5 1.5-.7 1.5-1.5-.7-1.5-1.5-1.5z" fill="#253984" stroke-width="none" opacity="1"></path><path id="SvgjsPath13328" d="M117.6 83.7c.4-.2 1 .2 1.5 1 .4.8.5 1.5.1 1.8-.4.2-1-.2-1.5-1-.4-.8-.4-1.6-.1-1.8zm3.3 4.4c.3 0 .6.3.6.6s-.3.6-.6.6-.6-.3-.6-.6.3-.6.6-.6z" fill="#ffffff" stroke-width="none" opacity="1"></path></g></g></g><g id="svga-group-eyesfront-right"><path id="SvgjsPath13251" d="M119.8 73.7c-7.8 0-14.1 6.1-14.1 13.6s6.3 13.6 14.1 13.6 14.1-6.1 14.1-13.6-6.3-13.6-14.1-13.6zm5.3 19.5c-4.4 1.8-15 .1-15 .1.1-1.9 1.3-5.8 4.7-8.7 3.4-2.9 17.2-3.8 16.6-.7-.7 3.1-1.9 7.6-6.3 9.3z" fill="#e8caba" stroke-width="none" opacity="1"></path><path id="SvgjsPath13254" d="M131.6 84.1s0-1.3-.9-1.7c-.6-.2-4.4-1-9.1-.7-2.6.2-4.6 1.1-6.1 2.1-.3.2-.6.3-.8.5-.9.8-1.7 1.6-2.4 2.6-1.3 1.9-2.3 4.1-2.3 6.4 0 .3.1.8.1.8s.1-.3.2-.7c2.2.4 4.3.7 6.6.8 1.2.1 2.3.1 3.4.1 1.2 0 2.3-.2 3.4-.4s2.2-.8 3.2-1.4c.9-.7 1.7-1.6 2.4-2.5.6-1 1.1-2 1.5-3.1.2-.5.3-1.1.5-1.7l.2-.8c0-.1 0-.1.1-.2v-.1zm-.4.1-.2.8c-.1.6-.3 1.1-.4 1.7-.4 1.1-.8 2.1-1.4 3.1-1.2 1.9-3.3 3.2-5.5 3.6-.6.1-1.1.2-1.7.3-.6 0-1.1.1-1.7.1-1.1.1-2.3.1-3.4 0-2.2-.1-4.4-.2-6.6-.4.4-1.5 1.5-4.6 2.4-5.7 1.2-1.5 4.2-4.5 8.5-4.9 3.6-.3 8.6.8 10 1.2v.2z" fill="#000000" stroke-width="none" opacity="1"></path></g></g></g><g id="svga-group-facehighlight-single"></g><g id="svga-group-eyebrows-left-move" transform="matrix(1,0,0,1,0,0)"><g id="svga-group-eyebrows-left-rotate" transform="matrix(1,1.7453292519943295e-9,-1.7453292519943295e-9,1,1.2424926865151065e-7,-1.3638876339427952e-7)"><g id="svga-group-eyebrows-left"><path id="SvgjsPath13170" d="M65.88 71.13c2.13-.71 4.25-1.44 6.39-2.04.53-.16 1.07-.3 1.6-.43.26-.05.53-.12.78-.16.3-.06.38-.04.62-.01.46.09.97.26 1.47.45.5.2 1 .42 1.5.65 1 .46 1.97 1 2.93 1.55.97.54 1.95 1.05 2.96 1.52 2.02.94 4.08 1.8 6.22 2.56l.12-.16c-.77-.89-1.67-1.6-2.58-2.28a30.81 30.81 0 0 0-2.82-1.89 23.88 23.88 0 0 0-3.03-1.53 87.21 87.21 0 0 0-3.18-1.24c-.54-.2-1.08-.39-1.64-.56-.56-.16-1.13-.32-1.78-.39-.18 0-.33-.03-.55.01-.23.02-.33.07-.49.1-.3.07-.57.17-.84.26-.54.19-1.08.39-1.6.6-1.05.43-2.08.88-3.1 1.35-1.02.46-2.04.95-3.04 1.45l.06.19z" fill="#2a232b" stroke-width="none" opacity="1"></path></g></g></g><g id="svga-group-eyebrows-right-move" transform="matrix(1,0,0,1,0,0)"><g id="svga-group-eyebrows-right-rotate" transform="matrix(1,1.7453292519943295e-9,-1.7453292519943295e-9,1,1.2713780961348675e-7,-2.1252871817978303e-7)"><g id="svga-group-eyebrows-right"><path id="SvgjsPath13171" d="M133.43 74.57c-1.92-.89-3.83-1.79-5.77-2.58-.48-.2-.97-.39-1.45-.57-.24-.08-.49-.17-.72-.23-.28-.08-.35-.08-.58-.07-.44.03-.93.14-1.42.27-.49.13-.98.29-1.47.45-.98.33-1.94.73-2.9 1.14-.96.41-1.94.78-2.93 1.11-1.99.66-4.01 1.25-6.09 1.74l-.09-.16c.82-.75 1.73-1.32 2.65-1.87.92-.55 1.87-1.03 2.84-1.47.97-.44 1.97-.81 3-1.12 1.03-.3 2.07-.56 3.11-.83.52-.13 1.05-.25 1.59-.35.55-.09 1.09-.18 1.71-.17.17.02.31.01.52.06.21.04.3.1.45.15.27.1.51.22.76.33.49.23.97.48 1.44.73.94.51 1.85 1.05 2.76 1.59.91.54 1.81 1.1 2.69 1.68l-.1.17z" fill="#2a232b" stroke-width="none" opacity="1"></path></g></g></g><g id="svga-group-beardwrap"><g id="svga-group-beard-single-move" transform="matrix(1,0,0,1,0,0)"><g id="svga-group-beard-single"><path id="SvgjsPath13160" d="m144.2 94.6.8 1.1s-.4-4.9-1.4-7.6c-1-2.7-5.5-6.5-5.5-6.5s-1.8 18.7-8 29.8c-4.8 8.6-8.1 9.9-10.2 9.2 2-.8 3.6-1.8 4.4-3 3.3-4.8 1.5-10.4-2.5-11.9-4.8-1.8-8.2 1.4-7.8 4.2.4 2.8 4.1 3.5 4.1 3.5-1.2-1.2-.1-4.2 1.7-3.6s1.6 4.2-2.1 4.8c-2.7.4-5.9.1-9.5-.4-3.6-.5-8.5 1.5-8.5 1.5-2.6-.9-6.4-1.7-9.2-1.2-2.7.5-7.2 2.3-9.4-.2-2.2-2.6-.6-4.7 1.1-3.5s.5 3.2.5 3.2c1.9-.4 2.6-2.8 2.1-4.3s-5.1-3.7-7.4-.1c-2.1 3.3-1.1 6.8 2.7 9.6-1.6 0-4.1-.6-7.1-3.2-5.3-4.6-11.2-20.2-10.9-33.9 0 0-3.8 4.8-4.9 6.9-1 2.1-1.5 6.8-1.5 6.8l1-.4s.2 1.5.4 11.7 2.3 23.1 3.5 27.7l1-1.1s.2 1.7 1.3 4.3c1.1 2.7 23.9 28.6 26.2 31 2.2 2.4 8.7 5.3 8.7 5.3V173l3.3 1.1s2.1-.6 3.5-2.1l-.4 2.1s4.7-.9 8.1-4.6c3.4-3.7 19.1-23.7 19.8-24.7l-.7 2.1s3.7-3.9 4.9-5.9 4.9-9.1 5.6-11.2c.7-2.1 2.1-15.9 1.8-22.5l.6 1.6-.1-14.3zM117.7 127c-1.1 4.8-5.6 10.1-8.3 11.5-2.7 1.4-16.8 2-20.6-2.7-3.8-4.8-6.6-10.3-6.8-15.3 7.1 3.9 18 2.3 18 2.3 7.5.2 13.9-.3 18.4-1.6 0 1.2-.1 3.2-.7 5.8z" fill="#2a232b" stroke-width="none" opacity="1"></path><path id="SvgjsPath13161" d="m144.7 96.2 1 1.3-.2-1.8c-.1-1.4-.3-2.7-.5-4.1-.1-.8-.3-1.6-.5-2.4 0-.1 0-.2-.1-.2-.1-.5-.3-.9-.5-1.4-.6-1.3-1.6-2.4-2.5-3.4-.9-1-1.9-2-3-2.9l-.8-.7-.1 1c-.4 3.9-1.5 7.8-2.3 11.6-.8 3.9-2 7.5-3.3 11.2-1.3 3.7-2.7 7.2-4.9 10.5-1.1 1.6-2.2 3.4-3.7 4.6-.6.4-1.2.8-1.9.9.8-.4 1.7-.9 2.3-1.5.9-.9 1.5-1.9 2-3.1.9-2.2.9-4.9-.2-7.1-.6-1.1-1.4-2.1-2.5-2.7-1.1-.7-2.3-1-3.5-1.1-1.2-.1-2.5.2-3.6.8-1.1.7-2 1.7-2.3 3-.2.6-.2 1.3 0 2s.6 1.2 1 1.7c1 .9 2.1 1.4 3.4 1.6l.5.1c-.1 0-.1 0-.1.1-1.1.3-2.4.4-3.7.4-1.3 0-2.5-.1-3.8-.2-1.3-.1-2.5-.3-3.8-.4-2.6 0-5.1.7-7.5 1.6-2.2-.7-4.6-1.2-6.9-1.3h-.1c-1.2-.1-2.4.2-3.6.5-1.2.3-2.3.6-3.5.7-1.2.1-2.4.1-3.4-.5s-1.7-1.6-1.9-2.7c-.1-.5 0-1.1.4-1.4.4-.3.9-.1 1.3.2.4.3.7.8.8 1.3 0 .5-.1 1.1-.4 1.5l-.4.6.7-.1c1.1-.2 1.9-1.1 2.3-2.1.2-.5.3-1 .3-1.5s0-1.1-.4-1.6c-.3-.5-.8-.8-1.2-1.1-.4-.3-.9-.5-1.4-.6-1-.3-2.1-.3-3.1.1s-1.8 1.2-2.3 2c-.5.9-.9 1.8-1 2.9-.2 2.1.8 4.1 2.2 5.5.4.4.8.8 1.2 1.1-1-.1-1.7-.8-2.7-1.2-1.7-.9-2.6-2.2-3.9-3.7-2.6-3.6-4.5-6.8-5.9-10.3-1.4-3.6-2.4-7.2-3.2-11S62 85.9 62 82v-.9l-.6.7-2.4 3c-.8 1-1.5 2.1-2.2 3.2-.7 1.1-1.1 2.5-1.3 3.7-.3 1.3-.5 2.6-.6 3.8l-.1.6.6-.2.6-.2c.2 3.1-.4 6.2-.4 9.3 0 3.3.2 6.6.5 9.9.3 3.3.7 6.6 1.2 9.8.5 3.3 1.8 6.6 2.6 9.8l.2.6.5-.5.6-.6c.2.9.5 1.8.8 2.7.2.5.4 1.1.8 1.6.3.5.7 1 1 1.4 1.4 1.8 2.9 3.6 4.4 5.4.2.3.5.5.7.8.2.4.5.9.7 1.3-.1-.3-.2-.5-.3-.8 2.3 2.8 4.7 5.5 7 8.2.2.3.4.7.7 1-.1-.1-.1-.3-.2-.4.1.1.2.3.4.4.6.7 1.3 1.4 1.9 2.2.1.2.1.3.2.5v-.3c2.3 2.7 4.7 5.3 7 7.9.1.1.2.3.2.4 0-.1 0-.1-.1-.2l2.2 2.4c.8.9 1.8 1.5 2.7 2.2 1.8 1.2 3.8 2.2 5.7 3.1 0 .1.1.1.1.2v-.2c.1.1.2.1.3.1l.2.1v-1.2l3.1 1h.1c.1 0 .1 0 .2-.1v.2-.2c1.1-.4 2.1-.9 3-1.7l-.3 1.6-.1.3.3-.1c3.4-.8 6.5-2.6 8.8-5.3 2.2-2.6 4.4-5.3 6.6-7.9l6.4-8c1.8-2.2 3.5-4.4 5.2-6.6l-.1.4-.5 1.4 1-1.1c1.2-1.3 2.4-2.6 3.6-4 .6-.7 1.1-1.4 1.6-2.2.5-.8.9-1.6 1.3-2.3.9-1.6 1.7-3.2 2.5-4.8.4-.8.8-1.6 1.1-2.4.2-.4.4-.8.5-1.3s.2-.9.3-1.4c.6-3.6.9-7.1 1.2-10.7.2-2.6.4-5.3.4-7.9l.6 1.7-.1-2.9.4-12.3zm-30.1 12.7c.2-.8.7-1.4 1.3-2 .5-.2.9-.4 1.4-.4 1.1-.1 2.2.3 3.2 1.1-.4-.9-1.2-1.5-2.2-1.7.4-.1.7-.1 1.1-.1 1.1.1 2.2.4 3.1.9.1 0 .1.1.2.1.2.3.3.6.4.8.3.9.3 1.8.1 2.7-.3 1.3-1.2 2.4-2.5 3.1.4-.5.6-1 .7-1.7.1-.7-.1-1.6-.8-2.1-.3-.3-.7-.4-1.1-.4-.4 0-.9.1-1.2.3-.7.5-1 1.2-1.1 1.9-.1.3 0 .7 0 1.1-.6-.2-1.1-.5-1.5-.9-.1-.1-.1-.2-.2-.3-.2-.6-.2-1.1.1-1.6.2-.5.7-.9 1.3-1.1.6-.2 1.2-.1 1.8.2-.4-.6-1.2-.9-1.9-.8-.8.1-1.5.6-1.8 1.3-.2.3-.2.6-.2.9-.3-.3-.3-.8-.2-1.3zm3.9 4.2c-.7-.6-.4-2.1.3-2.7.3-.3.9-.2 1.2.1.4.3.5.8.5 1.3-.1.8-.6 1.5-1.3 2l-.7-.7zm-7.6 1.9c1.3.2 2.6.3 3.8.3 1.3 0 2.6 0 3.9-.4.6-.2 1.1-.5 1.6-.9.7-.1 1.4-.4 1.9-.8.9-.6 1.5-1.6 1.8-2.6.2-1 .2-2-.2-2.9.4.4.7.9 1 1.4.3.6.5 1.2.7 1.9-.2.4-.4.7-.6 1-.5.7-1.2 1.2-1.9 1.6-1.5.8-3.2 1.1-4.9 1.6 1.8.1 3.6-.1 5.2-1 .8-.5 1.5-1.1 2-1.9.1-.2.2-.3.3-.5.1 1.2-.1 2.5-.5 3.6 0 .1-.1.2-.1.3-1.5.7-3.2 1.2-4.8 1.1-1.8 0-3.5-.5-5.1-1.4 1.3 1.3 3.2 2.1 5.1 2.1 1.7 0 3.4-.6 4.7-1.6-.4.8-.8 1.6-1.4 2.2-.8.8-1.7 1.3-2.7 1.8-1.5-.2-3-.4-4.4-.9-1.5-.4-2.9-1-4.3-1.6 1.1 1.1 2.6 1.9 4.1 2.3 1.4.4 3 .5 4.5.2-1.4.6-2.9 1.1-4.4 1.4-1.9-.2-3.8-.6-5.5-1.4-1.8-.8-3.4-2-4.8-3.5.9 1.8 2.6 3.3 4.5 4.2 1.5.7 3.2 1.1 4.8 1-.4.1-.8.2-1.2.2-1.7.3-3.4.5-5.1.6-1.1-.6-2-1.2-2.8-2-.9-.9-1.6-2-2.2-3.2 0 1.4.7 2.7 1.6 3.7.7.7 1.6 1.3 2.6 1.6-1.3.1-2.6.1-3.8.2-.7-1.1-1.3-2.2-1.8-3.4-.5-1.2-.8-2.5-1-3.8-.4 1.3-.2 2.8.3 4.1.5 1.2 1.3 2.4 2.4 3.1H100c-.8.1-1.7.2-2.5.2 1.2-.6 2.1-1.7 2.6-3s.6-2.8.1-4.1c2.2-.8 4.6-1.3 6.9-1.3 1.2.1 2.5.4 3.8.5zm7.1 6.6c0 .6 0 1.2-.1 1.9-.1 1.3-.3 2.5-.7 3.8-.6 2.4-1.9 4.7-3.5 6.7-.8 1-1.6 2-2.6 2.8l-1.5 1.2c-.5.4-1.1.5-1.7.7-2.5.6-5.1.6-7.6.6-2.6-.1-5.1-.4-7.6-1.2-1.2-.4-2.4-1-3.3-1.8-.5-.4-.8-.9-1.2-1.4-.4-.5-.8-1-1.1-1.6-2.5-3.7-4.6-7.8-5.1-12.4 2 1 4.2 1.6 6.4 1.9 3.8.5 7.7.6 11.5 0 4.6.2 9.3.1 13.9-.5 1.5-.2 2.9-.4 4.2-.7zm-17.8-5.7c-.1 1.3-.3 2.6-.7 3.8-.4 1.2-1.1 2.2-2 3.3-1.1.1-2.1.1-3.2.1-1.9 0-3.8-.2-5.7-.5-1.6-.3-3.2-.8-4.7-1.4 2.3.7 4.8.5 7.1-.3s4.5-2.4 5.8-4.6c-1.7 1.7-3.8 3-6 3.8-2.2.8-4.6 1.1-7 .9-1.3-.6-2.5-1.3-3.5-2.1.7.3 1.4.5 2.2.7.8.1 1.5.2 2.3.2 1.6 0 3.1-.3 4.6-.9 1.4-.6 2.8-1.5 3.9-2.5.6-.5 1.1-1 1.8-1.2.2-.1.4-.2.7-.2 1.3.2 2.7.6 4 1.1h.2c-.1-.1 0-.2.2-.2zm-23.4-3.3c0-.4.1-.7.2-1.1.1.9.4 1.7 1 2.4.9 1.1 2.3 1.7 3.6 1.5-1.2-.4-2.2-1.1-3-2-.6-.8-1-1.7-1.2-2.7.1-.2.2-.4.4-.7.4-.7 1.1-1.3 1.8-1.6-.6.6-.8 1.5-.5 2.2.5-1.2 1.1-2 2.1-2.5 1.2 0 2.4.6 3.2 1.4-.2-.2-.5-.3-.8-.3-.4-.1-.9.1-1.1.4.4-.1.7 0 1 .1.3.1.5.3.7.5.3.3.4.7.6 1.2-.1.8-.6 1.6-1.2 2 .1-.3.1-.7.1-1.1-.1-.7-.5-1.3-1-1.7-.5-.4-1.3-.6-2-.2-.6.5-.7 1.3-.6 1.9.1.6.4 1.2.8 1.7s.8.9 1.4 1.2c1.1.6 2.4.6 3.6.5 1.7-.2 3.2-.8 4.8-1-.5.2-.9.4-1.4.7-1.2.7-2.4 1.4-3.8 1.7-1.3.3-2.8.4-4.1.2-1.2-.2-2.3-.6-3.4-1.1-1-1.1-1.4-2.4-1.2-3.6zm1.1 3.9c.3.2.7.5 1.1.7.7.3 1.4.6 2.1.7 1.4.3 3 .3 4.4 0 1.5-.3 2.8-1.1 3.9-1.9.8-.5 1.6-1 2.5-1.3h.8c.7 0 1.4.1 2.2.2-.8.2-1.4.7-2 1.1-1.2.9-2.4 1.7-3.8 2.3-2.7 1.1-5.8 1.3-8.8.6-.5-.4-1.1-.9-1.5-1.4-.4-.3-.7-.7-.9-1zM143.6 93V96.4c-.1-.8-.3-1.5-.5-2.3-.4-1.4-.8-2.8-1.4-4.1-.6-1.3-1.2-2.6-1.9-3.8.5 1.3 1 2.7 1.4 4 .4 1.3.8 2.7 1.2 4.1.4 1.4.6 2.8.9 4.1.1.7.3 1.4.4 2.1l.1 5.3-.6-1.6.1 3c.1 1.6 0 3.3 0 4.9-.1-1.1-.2-2.1-.3-3.2-.2-1.7-.4-3.4-.8-5-.3-1.7-.7-3.3-1.2-4.9l1.2 10 .8 7.3c0 .5-.1 1-.1 1.5-.3 3.5-.6 7.1-1.2 10.6-.1.4-.2.9-.3 1.2-.1.4-.3.8-.5 1.2-.4.8-.7 1.6-1.1 2.4-.2.4-.5.9-.7 1.3.3-1.1.5-2.3.8-3.5.4-2 .6-4 .8-6.1.1-2 .2-4.1.1-6.1s-.2-4.1-.5-6.1c0 2 0 4.1-.1 6.1l-.3 6c-.1 2-.4 4-.6 6-.2 1.5-.4 3-.6 4.4-.4.9-.9 1.7-1.3 2.5s-.9 1.6-1.3 2.3c-.4.7-1 1.4-1.5 2.1-.8 1-1.6 1.9-2.5 2.9l.2-.6.5-1.5c.4-.6.7-1.2 1.1-1.8.6-1.2 1.2-2.4 1.7-3.6.5-1.2.9-2.5 1.2-3.8.3-1.3.6-2.6.6-3.9-.4 1.2-.8 2.5-1.2 3.7-.4 1.2-.9 2.5-1.3 3.7l-1.5 3.6c-.4 1-.9 1.9-1.3 2.9l-.3.4c-1.3 1.7-2.6 3.3-3.8 5 .6-1.1 1.1-2.1 1.6-3.3.6-1.4 1.1-2.9 1.4-4.5s.6-3.1.6-4.6c-.3 1.5-.7 3-1.1 4.5-.4 1.5-.9 2.9-1.5 4.3s-1.2 2.8-1.9 4.2c-.4.8-.8 1.5-1.2 2.2-.1.1-.1.2-.2.3l-6.4 8.1-.1.1c.6-1.1 1.2-2.1 1.7-3.3.7-1.5 1.3-3.1 1.8-4.8.5-1.6.8-3.3 1-5l-1.5 4.8c-.6 1.6-1.2 3.1-1.9 4.6-.7 1.5-1.5 3-2.3 4.4-.4.8-.9 1.6-1.4 2.3-1.2 1.6-2.5 3.1-3.8 4.6-1.4 1.8-3.3 3.1-5.4 4.1 1-.7 1.9-1.6 2.7-2.5.9-1 1.7-2.1 2.4-3.3.7-1.2 1.3-2.4 1.7-3.8.4-1.3.8-2.6.9-4-.4 1.3-.9 2.6-1.5 3.8l-1.8 3.6c-.7 1.2-1.4 2.3-2.2 3.4-.8 1-1.6 2-2.4 2.9-.9.4-1.8.7-2.7.9l.3-1.7c1.1-1.4 1.9-3.1 2.5-4.8.7-1.9 1.1-3.9 1.1-5.9-.6 1.9-1.1 3.8-1.8 5.6-.5 1.4-1.1 2.9-1.7 4.3l-.4.4c-.8.9-2 1.6-3.1 2 .1-1.7.1-3.4.1-5.1.1-1.9.2-3.7.3-5.6-.7 1.8-.9 3.7-1 5.6-.1 1.8.1 3.5.5 5.2h-.1l-3.3-1.1-.2-.1v1.2c-.1-.1-.2-.1-.3-.1-.4-2-.7-3.9-.8-5.9-.1-2.2 0-4.3.3-6.6-.8 2.1-1.1 4.4-1 6.6.1 2 .5 4 1.3 5.8-1.8-.9-3.6-1.9-5.3-2.9-.4-.2-.7-.5-1.1-.8-.6-1.1-1.1-2.2-1.5-3.3-.5-1.3-1-2.6-1.3-4-.3-1.4-.6-2.7-.8-4.1-.2-1.4-.2-2.8-.2-4.2-.3 1.4-.4 2.8-.3 4.3.1 1.4.3 2.9.6 4.2.4 1.4.8 2.8 1.5 4 .5 1 1 1.9 1.7 2.8-.4-.3-.8-.7-1.2-1.1L87 166c-.2-.2-.3-.4-.5-.6-.5-1.4-.9-2.8-1.3-4.3-.6-1.8-1.1-3.6-1.6-5.5 0 1.9.3 3.9.9 5.7.3 1 .7 2.1 1.2 3l-2.1-2.4c-.7-1.9-1.4-3.8-1.9-5.7-.6-2.2-.9-4.4-1.2-6.7-.3 2.3-.1 4.7.5 6.9.4 1.6 1 3.2 1.8 4.7-1.1-1.3-2.2-2.5-3.3-3.8-.2-1.4-.5-2.7-.9-4.1-.5-1.7-1-3.4-1.7-5.1.2 1.8.6 3.5 1 5.3.3 1.1.6 2.1 1 3.2-.3-.4-.7-.8-1-1.1-.5-.5-.9-1.1-1.4-1.6-.6-1.4-1.1-2.8-1.6-4.2-.8-2.1-1.4-4.2-2.1-6.3.1 2.2.7 4.4 1.4 6.5.3.9.7 1.7 1.1 2.5-.6-.8-1.3-1.5-1.9-2.2-.8-1.7-1.5-3.4-2.1-5.2-.8-2.3-1.3-4.7-1.8-7.1-.1 2.5.3 5 1.1 7.4.4 1.2.9 2.3 1.4 3.4-1-1.2-2-2.4-3.1-3.6-.3-.8-.5-1.6-.8-2.4-.5-1.6-.9-3.3-1.3-5-.4-1.7-.7-3.4-.9-5.1-.2-1.7-.4-3.4-.5-5.2-.2 1.7-.2 3.5-.1 5.2.1 1.8.4 3.5.7 5.2.4 1.7.9 3.4 1.5 5 .1.4.3.7.4 1.1l-2.4-3c-.2-1-.4-2-.5-3-.2-1.3-.4-2.6-.5-3.9-.2-1.3-.2-2.6-.3-4-.1-1.3-.1-2.7-.1-4-.3 1.3-.4 2.7-.4 4 0 1.4 0 2.7.2 4.1.2 1.3.4 2.7.7 4 .2.8.4 1.6.7 2.4-.2-.3-.4-.5-.6-.8-.3-.5-.7-.9-1-1.4-.3-.4-.5-1-.7-1.5-.4-1.1-.7-2.2-.9-3.2l-.1-.7-.2.2c.3-1.7.6-3.3.9-5 .3-2 .6-3.9.7-6-.7 1.9-1.2 3.9-1.5 5.8-.2 1.8-.4 3.5-.3 5.3l-.1.1-.6.6c-.6-2.5-1-5-1.4-7.5.1-1.7.2-3.3.2-5 .1-2.1.2-4.1.2-6.2-.6 2-.9 4.1-1 6.2v1.3c-.3-2.1-.5-4.2-.7-6.4l.7-8.2.8-8.2c-.4 1.3-.7 2.7-1 4-.3 1.4-.5 2.7-.6 4.1-.1 1.4-.2 2.8-.2 4.2 0 1.2 0 2.3.2 3.5 0-.2 0-.4-.1-.6-.3-3.3-.5-6.6-.5-9.9v-.9l1-5c.4-2.1.9-4.2 1.3-6.4-1 2-1.6 4.1-2 6.3-.1.7-.2 1.3-.3 2-.1-1.9-.2-3.8-.3-5.8.5-1.3 1.1-2.6 1.8-3.8.8-1.5 1.8-2.8 2.8-4.2-1.5.9-2.6 2.3-3.5 3.8-.6 1.1-1.1 2.3-1.3 3.6l-.4.2h-.5c.1-1.1.3-2.1.5-3.1.2-.9.4-1.7.7-2.5.4-.2.7-.5 1-.9.3-.4.6-.9.7-1.5-.2.1-.3.2-.5.2l1.5-2.1c.6-.8 1.2-1.5 1.8-2.3 0 3.6.4 7.1 1.1 10.6.7 3.8 1.8 7.6 3.2 11.2.7 1.8 1.5 3.6 2.4 5.3.9 1.7 2 3.4 3.2 4.8 1.3 1.5 2.9 2.6 4.7 3.5.9.4 1.8.7 2.8.8h.4c.8.6 1.6 1.1 2.4 1.5.1 1.9.6 3.9 1.3 5.8.9 2.4 2.2 4.7 3.6 6.9.3.5.7 1.1 1.1 1.6.4.5.8 1.1 1.3 1.5 1 .9 2.2 1.5 3.4 1.9 2.5.9 5.1 1.2 7.7 1.3 2.6.1 5.2 0 7.8-.5.6-.1 1.3-.4 1.9-.8.6-.4 1.1-.8 1.6-1.2 1-.9 1.8-1.9 2.7-2.9 1.6-2.1 2.9-4.4 3.7-6.9.3-1.3.6-2.6.7-3.9.1-.7.1-1.4.1-2.2l.9-.3c.4.1.8.2 1.2.2 1.1 0 2.2-.5 3-1.1 1.7-1.2 3-2.8 4.1-4.5 2.3-3.3 4.1-6.9 5.5-10.7 1.4-3.8 2.4-7.6 3.2-11.5.8-3.6 1.4-7.2 1.8-10.8.7.7 1.5 1.4 2.1 2.1.9 1 1.8 2 2.3 3.1.5 1.1.8 2.5 1 3.8l.3 2.1-.7-.5zm-48.4 27.9c-1.8 1.1-4 1.5-6.2 1.4 2.1.8 4.6.4 6.6-.7 2-1.2 3.4-3.2 3.8-5.4-1 2-2.4 3.6-4.2 4.7z" fill="#1b141c" stroke-width="none" opacity="1"></path></g></g></g><g id="svga-group-mustache-single-move" transform="matrix(1,0,0,1,0,0)"><g id="svga-group-mustache-single"></g></g><g id="svga-group-nose-single-move" transform="matrix(1,0,0,1,0,0)"><g id="svga-group-nose-single"><path id="SvgjsPath13368" d="M91.34 109.69s-1.67 3.06.49 3.96c2.15.9 2.71-.76 3.47-1.32s1.74.21 2.36 1.81c.63 1.6 4.58 1.67 5.21.83.63-.83.9-1.94 1.94-2.29 1.04-.35 1.53 1.53 2.43 1.74.9.21 3.2-.21 1.53-4.79-1.67-4.58-5.35-9.1-8.2-9.03-2.84.06-6.87 4.58-9.23 9.09z" fill="#e0bca9" stroke-width="none" opacity="1"></path><path id="SvgjsPath13369" d="M91.38 109.72c-.26.52-.46 1.08-.54 1.65-.06.56-.04 1.19.32 1.61.34.43.91.61 1.44.69.27.02.53.02.77-.06s.45-.22.64-.4c.19-.18.36-.4.55-.63.19-.23.38-.5.76-.69.19-.09.41-.13.62-.12.21.02.41.08.57.17.34.18.58.43.79.69.2.26.37.53.51.82.07.14.13.29.19.43l.04.11.04.07.07.13c.26.33.74.59 1.26.74.52.15 1.08.24 1.63.25.28 0 .56-.01.82-.05.26-.04.53-.12.7-.23.06-.04.16-.15.24-.27.08-.11.16-.23.24-.36.16-.24.31-.5.49-.75.35-.49.84-.99 1.56-1.01.37.02.64.26.85.48.21.23.38.47.57.69.18.22.38.43.6.55.21.11.52.11.77.07.54-.07.97-.47 1.12-.98.17-.51.13-1.08.04-1.63-.21-1.11-.68-2.18-1.17-3.23-.5-1.04-1.09-2.04-1.73-2.99-.65-.94-1.39-1.84-2.21-2.6-.82-.75-1.75-1.45-2.74-1.67-.95-.26-2 .2-2.94.8-.94.61-1.83 1.35-2.66 2.16-1.65 1.6-3.11 3.48-4.21 5.56zm-.08-.05c1.1-2.08 2.32-4.11 3.83-5.96.76-.92 1.6-1.79 2.61-2.5.5-.36 1.06-.66 1.67-.88.6-.23 1.34-.29 2-.14 1.32.31 2.33 1.11 3.21 1.95.87.86 1.62 1.82 2.27 2.82.66 1.01 1.21 2.07 1.68 3.18.46 1.1.84 2.25.99 3.46.06.6.07 1.24-.17 1.85-.22.61-.82 1.09-1.46 1.15-.32.03-.63.04-.96-.12-.3-.16-.5-.41-.69-.64-.19-.23-.36-.47-.56-.67-.19-.2-.41-.37-.65-.37-.22-.01-.49.14-.69.3a2.5 2.5 0 0 0-.53.63c-.15.24-.27.5-.41.76-.07.13-.14.26-.22.4-.08.13-.15.26-.32.41-.3.24-.61.33-.92.41-.31.07-.62.11-.93.13-.62.03-1.24 0-1.86-.15-.6-.16-1.26-.4-1.74-1-.05-.08-.1-.17-.15-.25l-.07-.13-.04-.09c-.05-.13-.11-.25-.17-.37-.12-.24-.25-.48-.41-.68-.31-.41-.72-.7-1.01-.56-.16.05-.36.26-.56.46-.2.21-.42.44-.68.63-.26.2-.56.36-.9.43-.33.07-.66.04-.98-.02-.31-.08-.59-.18-.87-.33-.14-.08-.28-.15-.39-.27l-.17-.16-.14-.2c-.36-.54-.35-1.2-.25-1.78.16-.61.36-1.17.64-1.7z" fill="#ba7e5d" stroke-width="none" opacity="1"></path></g></g><g id="svga-group-hair-front"><path id="SvgjsPath13477" d="M121.4 30.8s-8.9-8.7-20-10.3-21.3 2.7-24.7 4.9c0 0 2.8-1.1 8.4.8 0 0-14.4 1-22.2 9.1s-8.7 19.4-8.7 19.4.8-7.4 5.9-11.2c0 0-14.3 25.5 1.9 53.8 0 0-2.5-8.6-1.9-14.4 0 0 2.5 14.3 5.3 18.6 0 0-2.3-18.2-.6-25.5 0 0 .6 7.4 2.5 11.6 0 0 .8-17.9 6.7-24.5 0 0-.6 4.6.4 8 0 0 6.3-10.8 11.8-14.8 0 0-3.8 5.1-5.3 9.9 0 0 4-5.3 9.1-7.6s9.3-4 9.3-4-3 5.7-7.2 6.8c0 0 11.2-.4 20.7-8.4 0 0-3.2 6.5-7.4 8 0 0 6.8-1.5 11.2-5.3 4.4-3.8 7.2-9.5 8.7-12.5 0 0 1.7 14.1 10.1 21.7 0 0 2.1 6.1 2.1 9.5s.2 17.9-3.4 25.7c0 0 6.1-9.9 8-19.2 0 0 2.5-5.1 3.8-10.3 1.3-5.1-.4-19.4-2.9-24.9 0 0 1.9 1 3 3.2 0 0-2.1-8-8.6-12.9s-12.9-4.2-12.9-4.2 4.2-1.7 9.1-1c0 0-2.9-3.6-12.2 0z" fill="#2a232b" stroke-width="none" opacity="1"></path><path id="SvgjsPath13478" d="M124.4 42.7c-3.4 9.4-9.9 15.4-19.7 18-.3.1-.2.6.1.5 9.5-1 18.4-9 20.1-18.4.1-.3-.4-.5-.5-.1zm-7.5 6.5c.2-.2-.2-.5-.4-.3-7.2 6.9-14.8 10.7-24.6 12.1-.4 0-.3.7.1.7 9.5-.2 19.1-4.9 24.9-12.5zm-7.9-.3c-9.2 5.5-23 7.7-28.8 17.6-.2.3.2.6.5.4 7.9-9.1 19.4-10.5 28.7-17.3.3-.4 0-1-.4-.7zm-6.9-2.9c.3-.2.1-.7-.3-.6-10.9 4.2-21.6 13.3-26.6 23.9-.2.3.3.6.5.3 7.3-10.4 15-17.8 26.4-23.6zm-18.3 3.4c-10.4 9.7-17.6 24-16.9 38.5 0 .4.6.4.6 0 1.3-14.7 6.1-27.6 16.6-38.2.2-.2-.1-.5-.3-.3zM73 54.5c.2-.3-.2-.5-.4-.2-8.5 12.1-11.8 29.1-7.3 43.4.1.4.7.2.6-.2-2.8-15.3-1-29.4 7.1-43zM60.7 66.6c0-.3-.5-.4-.6-.1-2 11.8-.8 24.7 4.9 35.3.2.3.8.1.6-.3-4.4-11.3-6.6-22.6-4.9-34.9zm-.5-23.4c.1-.3-.3-.6-.5-.3-9.1 16.5-8 38.5 1.6 54.5.2.4.8 0 .6-.3-9.1-17.4-9.4-35.9-1.7-53.9zm-6.1 11.4c2.5-15.9 13.6-26.5 29.7-27.9.3 0 .3-.5 0-.5-15.6-.1-29.4 12.6-30.2 28.3 0 .3.5.4.5.1zm22.8-28.8c7.7-4.2 16-6.3 24.7-4.7 7.2 1.3 12.9 5 18.7 9.3.4.3.8-.3.5-.6-10.8-12.3-31.1-13.2-44.2-4.4-.2.2.1.6.3.4zm29-7.3c3.5.6 6.7 1.8 9.5 4 2.9 2.3 4.4 5.1 6.2 8.3.2.4.7.1.6-.3-1.3-7.1-9.4-12.4-16.2-12.5-.3-.1-.4.4-.1.5zm16.3 13.3c4.1-1.7 7.6-1.8 11.8-.7.4.1.7-.5.3-.7-3.8-1.9-8.8-1.4-12.3.9-.3.1-.1.6.2.5zM136 89.3c0 .3.3.4.4.1 3.6-12 1.6-26.2-5-36.8-.2-.3-.5 0-.4.2 1.7 3.7 3 7.3 4 11-6.2-7.2-9.2-15-8.6-24.8 0-.3-.4-.3-.5-.1-1.8 9.3 1.8 20.1 9.4 26.1 1.8 7.9 2 15.8.7 24.3zm-11.4-57.2c10.6.8 17.9 7 21.2 17 .1.4.6.2.6-.2-1.7-10.3-11.5-17.8-21.8-17.5-.4.1-.4.6 0 .7zm16 8.4c-.2-.3-.7 0-.5.3 6.3 12 7.3 24.1 2.9 36.9-.1.3.4.5.5.2 5.6-11.6 4.4-26.7-2.9-37.4zm2.2 28.7c-.9 11.8-4.2 21.7-9.8 32-.2.4.4.7.6.3 6.6-9.1 9.9-21.1 9.7-32.3 0-.3-.4-.3-.5 0zM67.4 47.8c-.1.3.3.5.4.3C74 37.6 84.3 30.7 96.7 30.2c.3 0 .3-.4 0-.4-12.2-.2-24.1 6.7-29.3 18zm41.5-14c-3.7 2-7.5 3.4-11.4 4.9-.3.1-.2.5.1.4 4-1.1 7.8-3 11.4-5.1.3 0 .1-.3-.1-.2z" fill="#1b141c" stroke-width="none" opacity="1"></path></g><g id="svga-group-glasses-single-move" transform="matrix(1,0,0,1,0,3)"><g id="svga-group-glasses-single"><path id="SvgjsPath13388" d="M79.1 71.7c9.4 0 17 7.6 17 17s-7.6 17-17 17-17-7.6-17-17 7.6-17 17-17z" fill="url(#SvgjsLinearGradient13389)" opacity="1"></path><path id="SvgjsPath13396" d="M121.5 71.7c9.4 0 17 7.6 17 17s-7.6 17-17 17-17-7.6-17-17 7.6-17 17-17z" fill="url(#SvgjsLinearGradient13397)" opacity="1"></path><path id="SvgjsPath13404" d="M142.6 84.9c-2.3-.1-3.8-1.8-4.6-3-2.7-6.4-9-11-16.4-11-8 0-14.7 5.3-17 12.5-.2 0-.5 0-.9-.1-1.3-.3-2.2-1.1-3.3-1.1-1.1 0-2 .8-3.3 1.1-.4.1-.7.1-.9.1-2.2-7.2-9-12.5-17-12.5-7.4 0-13.7 4.5-16.4 11-.8 1.2-2.3 2.9-4.6 3 0 0-.3 2.6-.1 4.9 0 0 2.7.4 3.8 3 1.8 7.8 8.9 13.7 17.3 13.7 9.5 0 17.2-7.5 17.7-16.8.8-2.4 2-3.4 2.7-3.8.5-.3 1-.3 1.5 0 .8.4 2 1.4 2.8 3.8.5 9.4 8.2 16.8 17.7 16.8 8.4 0 15.4-5.9 17.3-13.7 1.1-2.5 3.8-3 3.8-3 .2-2.3-.1-4.9-.1-4.9zm-61.4 19.8C70.6 106 61.7 97.1 63 86.6c.9-7.2 6.7-13 13.9-13.9 10.6-1.3 19.5 7.6 18.2 18.2-.9 7.1-6.7 12.9-13.9 13.8zm42.4 0c-10.6 1.3-19.5-7.6-18.2-18.2.9-7.2 6.7-13 13.9-13.9 10.6-1.3 19.5 7.6 18.2 18.2-.8 7.2-6.7 13-13.9 13.9z" fill="#26120b" stroke-width="none" opacity="1"></path><path id="SvgjsPath13405" d="M142.8 87.3c0-.4 0-.8-.1-1.2 0-.4-.1-.8-.1-1.2-1-.1-1.9-.4-2.6-.9-.8-.6-1.4-1.3-1.9-2.1-1.4-3.4-3.8-6.3-6.9-8.3-3.1-2-6.8-3-10.4-2.8-3.7.2-7.3 1.5-10.2 3.7-2.9 2.2-5 5.3-6.1 8.7-.6 0-1.3-.2-1.9-.5-.7-.3-1.4-.7-2.2-.7-.8 0-1.5.4-2.2.7-.6.3-1.3.5-1.9.5-1.1-3.4-3.3-6.5-6.1-8.7-2.9-2.2-6.5-3.6-10.1-3.7-3.7-.2-7.3.8-10.4 2.8s-5.5 4.9-6.9 8.2c-.5.8-1.2 1.5-1.9 2-.8.5-1.7.9-2.6.9H58v.1c-.2 1.6-.2 3.3-.1 4.9v.1h.1c.8.2 1.6.5 2.2 1 .7.5 1.2 1.1 1.5 1.9 1 4.2 3.5 7.9 6.9 10.4s7.8 3.8 12.1 3.4c4.3-.4 8.4-2.3 11.3-5.4 3-3.1 4.8-7.2 5-11.5.3-.8.7-1.7 1.2-2.4.3-.3.6-.7.9-.9.4-.3.7-.5 1.1-.5s.8.2 1.1.5c.3.3.7.6.9.9.5.7.9 1.5 1.2 2.4.2 4.3 2 8.4 5 11.5s7.1 5.1 11.3 5.4c4.3.4 8.6-.8 12.1-3.4 3.4-2.5 6-6.3 6.9-10.4.3-.7.9-1.4 1.5-1.9s1.4-.9 2.2-1h.1v-.1c.3-.7.3-1.6.3-2.4zm-.2 2.4c-.8.2-1.6.5-2.2 1-.7.5-1.2 1.2-1.6 2-1 4.1-3.5 7.8-6.9 10.2-3.4 2.5-7.7 3.6-11.8 3.2-4.2-.4-8.1-2.3-11-5.4-2.9-3-4.7-7.1-4.9-11.2-.3-.9-.7-1.8-1.3-2.6-.3-.4-.6-.7-1-1s-.8-.6-1.4-.6-1.1.3-1.4.6c-.4.3-.7.7-1 1-.6.8-1 1.7-1.3 2.6-.2 4.2-2 8.2-4.9 11.2s-6.9 4.9-11 5.3c-4.2.4-8.4-.8-11.8-3.2-3.4-2.4-5.9-6.1-6.9-10.2-.4-.8-.9-1.5-1.6-2-.7-.5-1.4-.8-2.2-1-.4-1.5-.4-3.1-.2-4.6.9-.1 1.9-.4 2.6-.9.8-.6 1.4-1.3 2-2.1 1.4-3.3 3.8-6.2 6.9-8.1 3-1.9 6.7-2.9 10.3-2.7 3.6.2 7.1 1.5 9.9 3.7s5 5.3 6 8.7v.1h.1c.8.1 1.6-.2 2.2-.5.7-.3 1.3-.7 2-.7s1.3.4 2 .7c.7.3 1.4.6 2.2.6h.2l.1-.2c1.1-3.4 3.2-6.5 6-8.7s6.3-3.5 9.9-3.7 7.2.8 10.3 2.7c3 1.9 5.5 4.8 6.9 8.1.5.8 1.2 1.5 2 2.1s1.7.9 2.7.9l.1 1.2c0 .4 0 .8.1 1.2 0 .7 0 1.5-.1 2.3zm-47.2-3.2c-.5-4.3-2.9-8.3-6.3-10.9-3.4-2.7-7.9-3.7-12.1-3.2-2.1.3-4.2 1-6 2.1s-3.4 2.5-4.8 4.2c-1.3 1.7-2.3 3.6-2.9 5.7-.6 2.1-.7 4.2-.5 6.4.5 4.3 2.9 8.3 6.3 10.8 3.4 2.6 7.9 3.6 12.1 3.1s8.2-2.8 10.8-6.1c1.3-1.7 2.3-3.6 2.9-5.7.3-1 .5-2.1.5-3.2.1-.5.1-1.1 0-1.6 0-.5.1-1 0-1.6zm-3.6 11.9c-1.3 1.7-2.8 3.1-4.7 4.2-1.8 1.1-3.8 1.8-5.9 2.1-4.2.5-8.6-.7-11.8-3.3-3.3-2.6-5.5-6.4-6.1-10.6-.2-2.1-.2-4.2.3-6.2s1.5-4 2.7-5.6c2.5-3.4 6.5-5.6 10.7-6.1 4.2-.4 8.5.7 11.8 3.3 3.3 2.6 5.6 6.4 6.1 10.6.4 3.9-.6 8.3-3.1 11.6zm46-11.9c-.5-4.3-2.9-8.3-6.3-10.9-3.4-2.7-7.9-3.7-12.1-3.2-2.1.3-4.2 1-6 2.1s-3.4 2.5-4.8 4.2c-1.3 1.7-2.3 3.6-2.9 5.7s-.7 4.2-.5 6.4c.5 4.3 2.9 8.3 6.3 10.8 3.4 2.6 7.9 3.6 12.1 3.1s8.2-2.8 10.8-6.1c1.3-1.7 2.3-3.6 2.9-5.7.3-1 .5-2.1.5-3.2.1-.5.1-1.1 0-1.6.1-.5.1-1 0-1.6zm-3.6 11.9c-1.3 1.7-2.8 3.1-4.6 4.2s-3.8 1.8-5.9 2.1c-4.2.5-8.6-.7-11.8-3.3-3.3-2.6-5.5-6.4-6.1-10.6-.2-2.1-.2-4.2.3-6.2s1.4-4 2.7-5.6c2.5-3.4 6.5-5.6 10.7-6.1 4.2-.4 8.5.7 11.8 3.3 3.3 2.6 5.6 6.4 6.1 10.6.4 3.9-.6 8.3-3.2 11.6z" fill="#070201" stroke-width="none" opacity="1"></path></g></g></g></g></g><rect id="svga-credit-rect" width="200" height="15" x="0" y="185" fill="#ecf0f1" opacity="0.5" style="display: none;"></rect><text id="svga-credit-text" font-family="Avenir Next, Roboto, Helvetica, Arial, sans-serif" font-size="10px" text-anchor="start" font-weight="400" size="10px" anchor="start" weight="400" fill="#333333" x="33.40447998046875" y="182.60824704170227" style="display: none;"><tspan id="SvgjsTspan13159" dy="13" x="33.40447998046875">Created on AvatarMaker.com</tspan></text></g><defs id="SvgjsDefs13106"><linearGradient id="SvgjsLinearGradient13389" x1="79.1" y1="71.7" x2="79.1" y2="105.64" gradientUnits="userSpaceOnUse" class="svga-on-canvas-glasses-gradient-single-0-null"><stop id="SvgjsStop13390" stop-opacity="1" stop-color="#b4c0cf" offset="0" ></stop><stop id="SvgjsStop13391" stop-opacity="0.9374" stop-color="#abbace" offset="0.0626" ></stop><stop id="SvgjsStop13392" stop-opacity="0.679" stop-color="#8aa3ca" offset="0.321" ></stop><stop id="SvgjsStop13393" stop-opacity="0.4305" stop-color="#7393c6" offset="0.5695" ></stop><stop id="SvgjsStop13394" stop-opacity="0.1987" stop-color="#6589c5" offset="0.8013" ></stop><stop id="SvgjsStop13395" stop-opacity="0" stop-color="#6086c4" offset="1" ></stop></linearGradient><linearGradient id="SvgjsLinearGradient13397" x1="121.5" y1="71.7" x2="121.5" y2="105.64" gradientUnits="userSpaceOnUse" class="svga-on-canvas-glasses-gradient-single-1-null"><stop id="SvgjsStop13398" stop-opacity="1" stop-color="#b4c0cf" offset="0" ></stop><stop id="SvgjsStop13399" stop-opacity="0.9374" stop-color="#abbace" offset="0.0626" ></stop><stop id="SvgjsStop13400" stop-opacity="0.679" stop-color="#8aa3ca" offset="0.321" ></stop><stop id="SvgjsStop13401" stop-opacity="0.4305" stop-color="#7393c6" offset="0.5695" ></stop><stop id="SvgjsStop13402" stop-opacity="0.1987" stop-color="#6589c5" offset="0.8013" ></stop><stop id="SvgjsStop13403" stop-opacity="0" stop-color="#6086c4" offset="1" ></stop></linearGradient></defs></svg>